<?xml version="1.0" standalone="no"?>
<!DOCTYPE svg PUBLIC "-//W3C//DTD SVG 20010904//EN"
 "http://www.w3.org/TR/2001/REC-SVG-20010904/DTD/svg10.dtd">
<svg version="1.0" xmlns="http://www.w3.org/2000/svg"
 width="400.000000pt" height="400.000000pt" viewBox="0 0 400.000000 400.000000"
 preserveAspectRatio="xMidYMid meet">
<metadata>
Created by potrace 1.11, written by Peter Selinger 2001-2013
</metadata>
<g transform="translate(0.000000,400.000000) scale(0.100000,-0.100000)"
fill="#000000" stroke="none">
<path d="M1870 3974 c0 -14 -4 -22 -10 -19 -6 4 -7 -1 -3 -11 5 -13 3 -15 -7
-9 -9 5 -11 4 -6 -4 4 -6 3 -17 -2 -24 -8 -10 -20 -64 -22 -99 0 -15 -20 -8
-20 7 0 23 -24 18 -49 -9 -14 -15 -29 -22 -39 -19 -12 5 -14 2 -8 -18 4 -13
10 -35 13 -49 3 -14 11 -28 17 -32 12 -8 -20 -118 -35 -118 -5 0 -9 -11 -9
-25 0 -14 4 -25 10 -25 5 0 15 -19 22 -42 6 -24 17 -52 23 -63 8 -13 11 -76
10 -185 -1 -135 -5 -172 -19 -205 -10 -22 -20 -34 -23 -27 -3 7 2 24 11 37 27
41 18 38 -42 -14 -32 -28 -64 -51 -71 -51 -7 0 -9 -4 -6 -10 3 -5 1 -10 -4
-10 -6 0 -11 5 -11 10 0 6 -5 10 -10 10 -6 0 -10 -7 -8 -16 4 -21 -32 -45 -39
-26 -3 6 -9 12 -13 12 -5 0 -4 -14 2 -32 9 -24 8 -33 0 -36 -13 -4 -17 -32 -4
-32 4 0 13 5 19 11 7 7 15 -2 27 -31 20 -51 20 -53 -5 -47 -19 5 -19 4 -6 -16
15 -24 22 -151 7 -142 -9 6 -3 -30 11 -60 5 -11 20 -47 33 -80 14 -36 32 -64
45 -70 25 -11 36 -44 26 -75 -5 -16 -10 -18 -20 -10 -9 8 -15 8 -20 0 -8 -14
17 -38 34 -32 10 3 12 -3 9 -27 -5 -31 5 -43 15 -17 4 11 29 14 117 12 61 -1
113 1 116 6 3 4 17 8 32 8 l27 0 -32 -21 c-18 -12 -33 -24 -33 -29 0 -4 33 -7
73 -7 71 0 71 0 17 6 l-55 6 40 19 c58 26 119 22 113 -7 -3 -15 24 -57 36 -57
5 0 6 14 2 32 -4 20 -3 29 3 23 5 -6 12 -39 15 -75 6 -57 5 -63 -7 -47 -18 22
-23 22 -30 -5 -7 -26 2 -45 14 -27 10 17 11 17 42 -70 25 -69 26 -76 11 -92
-9 -10 -20 -16 -24 -14 -12 8 -80 -73 -74 -88 6 -16 -18 -39 -37 -35 -7 2 -16
-8 -20 -22 -6 -20 -7 -21 -8 -5 -1 19 -1 19 -15 -1 -14 -19 -56 -130 -56 -146
0 -4 5 -8 10 -8 6 0 10 8 10 19 0 10 28 46 62 79 56 54 64 59 70 42 4 -12 -2
-43 -15 -80 l-23 -60 -23 31 c-31 42 -37 30 -12 -26 21 -47 20 -72 -2 -58 -16
9 78 -109 106 -134 30 -27 57 -36 57 -19 0 8 -6 17 -12 20 -7 3 -4 5 7 3 14
-2 21 -12 26 -40 3 -21 11 -43 18 -50 6 -6 11 -19 11 -30 0 -10 5 -17 13 -14
6 2 17 -3 24 -12 15 -20 17 -61 3 -61 -7 0 -7 -6 -1 -18 14 -27 12 -174 -3
-192 -7 -8 -19 -31 -26 -50 -44 -117 -70 -157 -157 -242 -98 -96 -110 -101
-241 -102 -56 0 -77 4 -86 16 -6 8 -22 18 -36 22 -51 15 -120 51 -125 66 -3 9
-13 16 -24 16 -11 0 -17 -5 -14 -13 3 -8 -2 -13 -13 -13 -17 -1 -16 -3 6 -21
23 -20 25 -27 25 -117 0 -65 -4 -97 -12 -99 -25 -9 -88 -174 -72 -190 6 -6 6
-20 -1 -38 -17 -45 -28 -105 -20 -105 9 0 63 144 75 197 3 18 11 33 16 33 15
0 10 -27 -16 -86 -17 -38 -22 -61 -15 -68 6 -6 3 -20 -9 -40 -11 -17 -31 -61
-45 -98 l-25 -68 66 0 c59 0 71 3 97 28 l31 27 -24 -28 -24 -27 68 0 c51 0 74
5 89 17 20 17 20 17 7 1 -13 -17 -7 -18 81 -18 68 0 100 4 116 15 19 14 21 14
16 1 -5 -14 58 -16 590 -16 341 1 596 4 596 9 0 5 3 16 6 25 5 12 0 16 -19 16
-14 0 -28 4 -31 9 -13 20 16 63 59 89 25 15 45 35 45 45 0 21 -13 22 -31 1 -7
-8 -25 -22 -41 -30 -26 -14 -28 -13 -28 6 0 12 -5 31 -11 42 -13 24 4 65 30
71 27 6 90 -32 107 -65 27 -52 -5 -188 -41 -174 -18 6 -29 -25 -13 -36 18 -11
96 -10 136 1 20 6 32 6 32 0 0 -5 62 -9 145 -9 146 0 146 0 134 21 -8 16 -8
23 0 29 7 3 9 14 5 23 -3 10 -1 17 5 17 7 0 21 -21 32 -46 12 -25 23 -44 25
-41 8 8 -34 91 -60 121 -33 37 -34 57 -2 27 14 -13 30 -20 36 -16 7 4 0 16
-21 31 -38 28 -50 44 -42 58 3 5 1 6 -4 3 -6 -4 -13 2 -16 13 -3 11 -16 24
-30 29 -31 12 -89 90 -82 111 3 9 -1 32 -9 51 -7 19 -14 60 -14 92 0 32 -5 63
-10 70 -11 12 -3 71 15 117 7 16 7 30 0 41 -8 13 -4 27 15 60 14 24 28 53 31
64 2 11 5 -1 6 -27 0 -27 5 -48 9 -48 5 0 8 56 7 125 -1 69 1 125 5 125 4 0
12 -11 18 -25 6 -14 16 -25 22 -25 5 0 1 15 -9 33 -21 38 -46 108 -43 121 2 4
-13 28 -33 51 -19 24 -35 48 -35 54 0 6 -5 11 -10 11 -6 0 -23 11 -38 25 -15
14 -34 25 -42 25 -12 1 -12 3 3 14 18 14 24 32 6 21 -6 -4 -13 2 -16 14 -3 12
-10 21 -15 21 -5 0 -30 21 -55 46 -26 25 -57 50 -70 55 -15 5 -31 27 -44 55
-22 53 -17 71 11 34 14 -18 20 -20 20 -9 0 8 -4 19 -9 25 -5 5 -19 34 -31 64
-22 57 -60 120 -72 120 -4 0 -8 -10 -10 -22 -4 -19 -8 -14 -28 27 -12 28 -22
57 -22 66 0 9 -15 34 -34 55 -33 35 -70 104 -57 104 3 0 37 -29 75 -65 39 -36
73 -63 76 -60 3 2 -24 31 -58 62 -86 78 -90 83 -116 148 l-23 55 26 56 c13 30
23 61 20 68 -3 7 4 18 14 24 10 7 19 18 19 25 0 8 -4 7 -10 -3 -8 -12 -10 -12
-10 -1 0 8 8 20 18 27 20 16 52 18 52 4 0 -20 21 -9 30 15 5 14 17 28 25 31
11 5 13 10 5 19 -12 14 19 97 41 110 8 6 10 4 4 -6 -5 -8 0 -7 12 3 11 10 29
18 41 18 11 0 24 5 27 10 3 6 14 10 24 10 11 0 29 9 42 21 20 17 21 19 3 10
-11 -5 -26 -6 -32 -2 -17 10 40 60 95 85 23 10 40 22 37 27 -2 4 4 13 15 18
25 14 34 14 26 1 -3 -5 -1 -10 6 -10 11 0 130 122 137 141 2 5 -4 6 -12 3 -19
-7 33 96 68 134 36 41 54 45 83 22 33 -26 43 -17 15 13 -12 13 -19 27 -15 30
3 4 0 7 -8 7 -8 0 -27 11 -43 25 -33 28 -51 32 -42 10 6 -17 -29 -22 -39 -5
-3 6 -15 10 -26 10 -10 0 -19 4 -19 9 0 4 12 6 28 4 21 -4 24 -2 12 6 -8 6
-33 10 -55 10 -22 -1 -44 0 -50 1 -25 6 -28 -2 -5 -16 l25 -15 -33 5 c-24 4
-31 2 -26 -7 4 -6 -3 -2 -15 11 -22 23 -37 30 -26 12 3 -5 1 -10 -4 -10 -6 0
-11 6 -11 13 0 7 -15 18 -33 25 -53 19 -95 83 -101 155 -10 108 2 183 36 227
11 14 44 51 75 83 59 61 61 76 4 27 -35 -29 -58 -31 -43 -4 9 16 38 35 85 56
19 9 27 20 27 38 1 22 2 23 13 8 7 -9 17 -24 23 -34 17 -29 34 -9 22 29 -5 17
-10 39 -10 47 -1 8 -4 17 -8 20 -4 3 -15 19 -24 35 -15 26 -16 27 -10 5 4 -14
9 -32 11 -40 2 -8 -4 1 -14 20 -10 19 -22 38 -27 41 -5 4 0 9 10 12 17 4 17 5
-3 12 -12 4 -22 15 -21 24 4 53 -3 91 -17 91 -10 0 -15 -11 -16 -37 l-1 -38
-15 38 -16 37 -211 0 c-156 0 -216 -3 -225 -12 -11 -10 -13 -10 -7 0 6 9 -30
12 -163 12 l-170 0 -21 -27 c-19 -24 -90 -69 -90 -57 0 2 19 22 41 44 l41 40
-121 0 c-74 0 -121 -4 -121 -10 0 -5 -5 -10 -11 -10 -5 0 -7 5 -4 10 4 6 -46
10 -144 10 -110 0 -151 -3 -154 -12 -3 -10 -9 -10 -26 0 -11 6 -34 12 -51 12
-26 0 -30 -4 -30 -26z m1450 -29 c-7 -9 -15 -13 -17 -11 -7 7 7 26 19 26 6 0
6 -6 -2 -15z m9 -41 c3 -3 -13 -22 -35 -45 -45 -46 -58 -36 -19 15 19 25 22
36 13 40 -7 3 -2 3 12 0 14 -4 27 -8 29 -10z m-1439 -25 c-7 -11 -14 -18 -17
-15 -8 8 5 36 17 36 7 0 7 -6 0 -21z m1427 -56 c-19 -20 -40 -34 -46 -32 -7 3
7 24 31 47 24 25 44 38 46 32 3 -7 -11 -28 -31 -47z m-1468 -8 c-25 -42 -32
-45 -18 -9 13 36 19 44 29 44 5 0 0 -16 -11 -35z m1585 -34 c-6 -6 -24 19 -24
34 1 6 7 1 15 -9 8 -11 12 -22 9 -25z m-1646 -46 c0 -41 -3 -75 -7 -75 -3 0
-7 34 -9 75 -2 45 1 75 7 75 6 0 10 -31 9 -75z m-31 4 c3 -44 -11 -53 -21 -13
-7 27 2 70 12 59 4 -3 8 -24 9 -46z m1473 11 c0 -12 -51 -62 -57 -57 -2 2 2
18 8 35 7 21 18 32 30 32 10 0 19 -5 19 -10z m-1330 -103 c0 -2 -10 -12 -21
-23 -22 -19 -22 -19 -10 4 10 18 31 31 31 19z m-130 -26 c0 -6 -4 -13 -10 -16
-5 -3 -10 1 -10 9 0 9 5 16 10 16 6 0 10 -4 10 -9z m-35 -76 c0 -14 -2 -25 -6
-25 -9 0 -17 32 -11 48 6 19 15 6 17 -23z m285 26 c0 -13 -29 -35 -37 -28 -7
8 15 37 28 37 5 0 9 -4 9 -9z m-244 -57 c-4 -9 -9 -15 -11 -12 -3 3 -3 13 1
22 4 9 9 15 11 12 3 -3 3 -13 -1 -22z m29 -311 c-10 -42 -25 -52 -25 -17 0 32
6 44 23 44 5 0 6 -12 2 -27z m365 3 c0 -2 -7 -7 -16 -10 -8 -3 -12 -2 -9 4 6
10 25 14 25 6z m-375 -116 c-4 -12 -9 -19 -12 -17 -3 3 -2 15 2 27 4 12 9 19
12 17 3 -3 2 -15 -2 -27z m1885 -48 c-20 -7 -40 7 -34 23 6 14 9 14 26 -2 12
-10 15 -19 8 -21z m-60 -11 c0 -6 -4 -13 -10 -16 -5 -3 -10 1 -10 9 0 9 5 16
10 16 6 0 10 -4 10 -9z m-1002 -61 c-7 -11 -17 -20 -22 -20 -5 0 -1 9 9 20 10
11 20 20 22 20 2 0 -2 -9 -9 -20z m962 -21 c-7 -11 -14 -18 -17 -15 -8 8 5 36
17 36 7 0 7 -6 0 -21z m-1978 -51 c-7 -7 -12 -8 -12 -2 0 14 12 26 19 19 2 -3
-1 -11 -7 -17z m-26 -45 c-11 -11 -19 6 -11 24 8 17 8 17 12 0 3 -10 2 -21 -1
-24z m1909 19 c-6 -4 -25 -21 -44 -37 -28 -25 -32 -26 -22 -8 12 23 49 53 65
53 6 0 6 -3 1 -8z m-1855 -147 c5 3 8 -17 8 -45 -1 -38 -4 -47 -14 -39 -14 11
-29 115 -25 169 5 66 16 55 19 -18 2 -40 7 -70 12 -67z m80 126 c0 -5 -6 -14
-14 -20 -12 -10 -13 -8 -9 8 5 21 23 30 23 12z m-43 -73 c-3 -8 -6 -5 -6 6 -1
11 2 17 5 13 3 -3 4 -12 1 -19z m1833 8 c0 -2 -8 -10 -17 -17 -16 -13 -17 -12
-4 4 13 16 21 21 21 13z m-55 -35 c-3 -6 -11 -11 -17 -11 -6 0 -6 6 2 15 14
17 26 13 15 -4z m-58 -30 c-16 -10 -24 -20 -18 -22 6 -2 2 -10 -10 -18 -19
-11 -21 -11 -16 3 4 10 1 16 -8 16 -29 0 -15 17 23 27 55 16 60 15 29 -6z
m-1747 -143 c7 -24 17 -47 22 -52 4 -6 8 -19 8 -31 0 -12 5 -26 12 -33 9 -9 9
-12 0 -12 -7 0 -19 16 -27 35 -8 19 -22 51 -30 70 -16 39 -20 79 -7 71 5 -3
15 -24 22 -48z m-53 5 c-3 -10 -5 -4 -5 12 0 17 2 24 5 18 2 -7 2 -21 0 -30z
m1608 -22 c-6 -5 -21 -12 -35 -15 -24 -7 -24 -6 -6 8 21 17 57 23 41 7z m-105
-81 c0 -5 -5 -10 -11 -10 -5 0 -7 5 -4 10 3 6 8 10 11 10 2 0 4 -4 4 -10z
m-30 -8 c0 -4 -7 -18 -16 -31 -12 -16 -19 -20 -27 -12 -7 7 -5 17 8 31 18 20
35 26 35 12z m0 -67 c-7 -9 -15 -13 -18 -10 -3 2 1 11 8 20 7 9 15 13 18 10 3
-2 -1 -11 -8 -20z m-1355 -75 c3 -5 1 -10 -4 -10 -6 0 -11 5 -11 10 0 6 2 10
4 10 3 0 8 -4 11 -10z m170 -10 c3 -5 2 -10 -4 -10 -5 0 -13 5 -16 10 -3 6 -2
10 4 10 5 0 13 -4 16 -10z m-160 -20 c3 -5 1 -10 -4 -10 -6 0 -11 5 -11 10 0
6 2 10 4 10 3 0 8 -4 11 -10z m150 0 c3 -5 -1 -10 -9 -10 -8 0 -18 5 -21 10
-3 6 1 10 9 10 8 0 18 -4 21 -10z m1079 -5 c-4 -8 -10 -15 -15 -15 -4 0 -6 7
-3 15 4 8 10 15 15 15 4 0 6 -7 3 -15z m-16 -90 c-6 -14 -15 -25 -20 -25 -11
0 -10 7 2 31 16 28 32 23 18 -6z m-538 -39 l-22 -21 18 35 c10 21 19 30 22 21
2 -7 -6 -23 -18 -35z m-70 17 c-1 -14 -30 -47 -36 -41 -10 11 7 48 22 48 8 0
14 -3 14 -7z m-113 -85 c-3 -8 -6 -5 -6 6 -1 11 2 17 5 13 3 -3 4 -12 1 -19z
m-17 -248 c0 -5 -3 -10 -7 -10 -5 0 -16 -14 -26 -31 -10 -18 -20 -29 -23 -26
-3 3 5 21 18 41 23 35 38 46 38 26z m-160 -140 c0 -5 -5 -10 -11 -10 -5 0 -7
5 -4 10 3 6 8 10 11 10 2 0 4 -4 4 -10z m900 -26 c-18 -21 -24 -10 -9 18 8 14
14 18 17 10 2 -7 -2 -19 -8 -28z m-760 -118 c0 -8 -4 -18 -10 -21 -5 -3 -10 3
-10 14 0 12 5 21 10 21 6 0 10 -6 10 -14z m-10 -126 c0 -5 -2 -10 -4 -10 -3 0
-8 5 -11 10 -3 6 -1 10 4 10 6 0 11 -4 11 -10z m1155 -30 c16 -16 26 -32 24
-35 -3 -2 -21 11 -39 30 -19 19 -29 35 -24 35 6 0 23 -13 39 -30z m-544 2 c-5
-9 -19 -26 -32 -37 -26 -23 -17 -2 14 33 25 27 31 28 18 4z m517 -40 c6 -18
-15 -14 -22 4 -4 10 -1 14 6 12 6 -2 14 -10 16 -16z m130 -74 c19 -19 14 -29
-8 -16 -20 13 -27 28 -12 28 4 0 13 -5 20 -12z m42 -48 c0 -5 -2 -10 -4 -10
-3 0 -8 5 -11 10 -3 6 -1 10 4 10 6 0 11 -4 11 -10z m-401 -76 c-18 -19 -37
-34 -41 -34 -19 0 -5 29 30 64 29 30 38 34 40 21 2 -9 -11 -32 -29 -51z m415
7 c-6 -6 -24 19 -24 34 1 6 7 1 15 -9 8 -11 12 -22 9 -25z m-438 -109 c-20
-20 -22 -1 -4 31 11 20 12 21 16 3 2 -10 -3 -26 -12 -34z m498 -18 c3 -8 2
-12 -4 -9 -12 8 -12 3 -1 -28 9 -23 7 -25 -20 -29 -33 -5 -40 15 -12 31 10 5
15 13 11 16 -4 4 -1 13 5 21 15 17 14 17 21 -2z m-635 -109 c22 -24 41 -42 41
-38 0 4 -8 15 -17 25 -14 16 -14 18 -1 13 29 -11 40 -50 37 -128 -4 -75 -24
-122 -40 -95 -4 7 -11 9 -15 5 -4 -3 -1 -14 6 -22 21 -26 -3 -63 -56 -85 -25
-11 -52 -20 -60 -20 -8 0 -14 -4 -14 -10 0 -5 -9 -10 -20 -10 -11 0 -20 5 -20
11 0 5 -5 7 -10 4 -6 -3 -22 3 -36 14 -15 11 -30 18 -35 15 -5 -3 -6 1 -4 9 3
7 -3 22 -15 32 -11 10 -20 26 -20 37 0 10 -4 18 -10 18 -18 0 -10 43 19 113
16 37 26 67 21 67 -4 0 -13 -14 -20 -31 -8 -19 -16 -27 -22 -21 -25 25 84 119
124 106 15 -4 18 -3 13 6 -5 9 -4 11 3 6 6 -4 24 0 39 8 46 25 67 19 112 -29z
m618 -12 c-9 -9 -20 -14 -24 -10 -3 4 2 14 13 21 25 19 33 10 11 -11z m-1067
-302 c0 -5 -12 -17 -27 -26 l-28 -18 24 27 c26 28 31 31 31 17z m-703 -7 c-3
-3 -12 -4 -19 -1 -8 3 -5 6 6 6 11 1 17 -2 13 -5z m221 -76 c-5 -15 -48 -24
-48 -10 0 14 12 22 33 22 10 0 17 -5 15 -12z m780 -40 c-6 -18 -28 -21 -28 -4
0 9 7 16 16 16 9 0 14 -5 12 -12z m-981 -24 c7 -18 -17 -38 -31 -24 -11 11 -1
40 14 40 6 0 13 -7 17 -16z m753 -9 c0 -8 -4 -15 -10 -15 -5 0 -7 7 -4 15 4 8
8 15 10 15 2 0 4 -7 4 -15z m-910 -66 c-7 -16 -16 -29 -21 -29 -5 0 -2 16 6
36 8 20 15 39 16 43 0 3 3 0 6 -7 3 -7 0 -26 -7 -43z m1498 -270 c-22 -14 -30
-10 -23 12 4 12 8 27 9 33 1 6 6 18 11 26 8 11 11 6 13 -24 2 -24 -2 -42 -10
-47z m16 -34 c-6 -16 -34 -21 -34 -7 0 13 11 22 26 22 8 0 11 -6 8 -15z m216
1 c0 -3 -4 -8 -10 -11 -5 -3 -10 -1 -10 4 0 6 5 11 10 11 6 0 10 -2 10 -4z"/>
<path d="M2737 914 c-4 -4 -7 -20 -7 -35 0 -22 -4 -26 -20 -22 -13 3 -20 0
-21 -8 -4 -55 -3 -96 3 -93 4 3 8 -15 10 -38 3 -36 7 -44 26 -46 13 -2 32 4
41 12 10 9 42 25 72 35 30 11 54 24 53 30 -2 27 -5 31 -16 31 -18 0 -98 76
-98 93 0 7 5 18 12 25 6 6 8 15 5 19 -4 4 -15 -4 -24 -17 l-17 -24 -6 23 c-3
12 -8 19 -13 15z m18 -63 c-2 -5 -9 -21 -15 -36 -15 -40 -24 -23 -10 19 6 20
16 34 21 30 5 -3 7 -9 4 -13z m38 -42 c-8 -8 -14 -6 -22 9 -13 25 -2 37 18 17
11 -11 12 -18 4 -26z m-38 -28 c-3 -12 -10 -21 -15 -21 -5 0 -4 11 2 25 13 29
23 26 13 -4z m62 -2 l28 -11 -48 -25 c-27 -13 -50 -23 -52 -21 -6 6 24 68 34
68 5 0 22 -5 38 -11z"/>
<path d="M2655 670 c3 -5 20 -19 38 -31 l32 -22 -33 32 c-33 31 -49 40 -37 21z"/>
<path d="M1799 3853 c-13 -16 -12 -17 4 -4 9 7 17 15 17 17 0 8 -8 3 -21 -13z"/>
<path d="M3476 3621 c-4 -7 -5 -15 -2 -18 9 -9 19 4 14 18 -4 11 -6 11 -12 0z"/>
<path d="M3510 3600 c0 -5 5 -10 11 -10 5 0 7 5 4 10 -3 6 -8 10 -11 10 -2 0
-4 -4 -4 -10z"/>
<path d="M3543 3580 c-7 -26 -49 -34 -84 -16 -27 14 -31 13 -58 -10 -16 -13
-34 -24 -40 -24 -8 0 -8 -6 1 -19 9 -15 9 -25 -2 -48 -14 -29 -18 -98 -6 -110
3 -3 6 1 6 10 0 22 18 31 35 17 11 -9 15 -9 15 -1 0 6 -4 11 -8 11 -5 0 -14
12 -21 26 -10 22 -8 30 11 54 13 16 28 29 35 29 6 1 13 6 15 13 3 7 11 9 24 3
18 -7 18 -8 -4 -14 -27 -7 -54 -61 -42 -82 5 -7 6 -17 4 -21 -3 -4 1 -8 10 -8
8 0 17 -14 22 -32 3 -18 16 -44 27 -58 l19 -25 -7 25 c-4 14 -12 30 -17 37
-11 14 -1 73 12 73 8 0 24 -34 25 -55 3 -28 18 -55 32 -55 9 0 13 -6 10 -14
-4 -10 0 -12 14 -9 27 8 24 -12 -7 -36 -18 -14 -40 -21 -68 -20 l-41 2 37 10
c20 6 39 16 42 23 4 9 -6 9 -43 -1 -59 -15 -78 -8 -128 49 -22 25 -44 46 -49
46 -4 0 -3 -5 4 -12 7 -7 12 -18 12 -26 0 -15 24 -42 38 -42 9 0 42 -43 42
-55 0 -3 -7 -5 -15 -5 -8 0 -15 -4 -15 -10 0 -5 13 -7 30 -4 18 4 36 1 45 -6
10 -9 15 -9 15 -1 0 6 14 11 31 11 17 0 28 -4 24 -10 -3 -5 -1 -10 4 -10 6 0
11 5 11 10 0 6 7 10 15 10 8 0 15 5 15 12 0 7 15 28 33 47 17 18 25 32 17 29
-19 -7 -60 8 -60 22 0 5 9 10 21 10 11 0 17 5 14 10 -3 6 1 10 9 10 8 0 18 -9
21 -20 9 -29 28 -25 21 5 -4 14 -3 25 1 25 5 0 25 16 47 36 49 45 61 35 15
-12 -19 -20 -29 -35 -24 -32 6 2 25 10 42 17 18 7 31 17 28 22 -10 16 15 49
37 49 12 0 18 3 15 7 -9 9 13 34 24 27 5 -3 9 0 9 6 0 6 -8 10 -17 8 -15 -3
-18 5 -18 47 0 28 -4 50 -10 50 -5 0 -8 -10 -7 -22 2 -14 -8 -29 -32 -48 -34
-25 -36 -26 -78 -12 -28 10 -45 12 -49 5 -5 -7 -19 -6 -43 2 -20 6 -34 16 -31
21 4 5 -1 9 -9 9 -26 0 -18 17 11 25 17 4 29 2 31 -4 2 -6 7 -9 12 -6 4 3 28
-4 51 -15 46 -20 84 -26 75 -11 -3 5 -22 12 -42 16 -20 3 -46 17 -58 29 -29
31 -77 40 -83 16z m-121 -62 c-6 -6 -15 -8 -19 -4 -4 4 -1 11 7 16 19 12 27 3
12 -12z m88 12 c0 -5 -4 -10 -10 -10 -5 0 -10 5 -10 10 0 6 5 10 10 10 6 0 10
-4 10 -10z m-10 -50 c0 -5 -4 -10 -10 -10 -5 0 -10 5 -10 10 0 6 5 10 10 10 6
0 10 -4 10 -10z m61 -4 c19 -7 43 -16 54 -20 18 -7 16 -9 -14 -22 -33 -14 -36
-13 -63 13 -45 43 -37 54 23 29z m114 4 c3 -5 -3 -10 -14 -10 -11 0 -23 5 -26
10 -3 6 3 10 14 10 11 0 23 -4 26 -10z m-198 -17 c4 -9 2 -18 -4 -20 -6 -2 -9
-13 -6 -23 6 -23 -15 -27 -23 -5 -8 20 4 65 17 65 5 0 13 -8 16 -17z m303 7
c12 -7 10 -9 -8 -7 -12 0 -22 5 -22 9 0 11 12 10 30 -2z m-239 -50 c11 0 11
-2 -1 -10 -17 -11 -40 5 -40 29 1 14 2 14 14 -1 7 -10 19 -18 27 -18z m120 -1
c-20 -18 -40 -29 -53 -27 -40 6 -30 27 19 42 68 21 70 20 34 -15z m89 21 c0
-5 -2 -10 -4 -10 -3 0 -8 5 -11 10 -3 6 -1 10 4 10 6 0 11 -4 11 -10z m-171
-54 c9 -10 8 -15 -4 -20 -8 -3 -15 -4 -15 -2 0 3 -3 11 -6 20 -8 20 9 21 25 2z
m-29 -37 c0 -5 -4 -9 -10 -9 -5 0 -10 7 -10 16 0 8 5 12 10 9 6 -3 10 -10 10
-16z"/>
<path d="M3280 3479 c-7 -11 -10 -23 -7 -25 2 -2 9 7 15 21 14 30 7 33 -8 4z"/>
<path d="M3330 3485 c-7 -9 -8 -15 -2 -15 5 0 12 7 16 15 3 8 4 15 2 15 -2 0
-9 -7 -16 -15z"/>
<path d="M3420 3361 c0 -5 5 -13 10 -16 6 -3 10 -2 10 4 0 5 -4 13 -10 16 -5
3 -10 2 -10 -4z"/>
<path d="M11 3304 c0 -11 3 -14 6 -6 3 7 2 16 -1 19 -3 4 -6 -2 -5 -13z"/>
<path d="M40 3287 c0 -7 -9 -32 -21 -56 -11 -23 -18 -52 -16 -64 3 -21 4 -21
11 -2 4 11 14 33 23 48 18 34 24 75 12 83 -5 3 -9 -1 -9 -9z"/>
<path d="M3370 3234 c0 -8 5 -12 10 -9 6 4 8 11 5 16 -9 14 -15 11 -15 -7z"/>
<path d="M3695 3010 c3 -5 8 -10 11 -10 2 0 4 5 4 10 0 6 -5 10 -11 10 -5 0
-7 -4 -4 -10z"/>
<path d="M3620 2909 c0 -5 5 -7 10 -4 6 3 10 8 10 11 0 2 -4 4 -10 4 -5 0 -10
-5 -10 -11z"/>
<path d="M1532 2810 c0 -14 2 -19 5 -12 2 6 2 18 0 25 -3 6 -5 1 -5 -13z"/>
<path d="M1933 1453 c-13 -2 -23 -9 -23 -14 0 -6 4 -8 9 -4 5 3 13 0 17 -6 4
-8 -3 -9 -25 -4 -34 7 -44 -9 -11 -18 11 -3 20 -12 20 -21 0 -10 -6 -13 -17
-9 -10 3 -15 3 -11 -1 4 -5 -6 -45 -21 -90 -16 -44 -34 -99 -41 -121 -7 -22
-17 -46 -23 -53 -12 -15 -55 -132 -68 -186 -5 -21 -18 -57 -29 -79 -22 -44
-26 -77 -10 -77 18 0 11 -20 -7 -21 -13 0 -11 -3 7 -11 14 -6 30 -12 35 -12
27 -3 55 -18 50 -27 -4 -5 2 -9 12 -9 10 0 28 -3 41 -6 13 -4 22 -2 22 5 0 6
-8 11 -17 11 -29 0 -123 48 -123 62 0 10 2 10 9 -1 6 -9 30 -13 82 -12 101 1
132 8 164 38 20 20 29 23 35 13 6 -9 28 7 77 56 37 38 74 77 82 87 23 29 -3
19 -47 -19 -23 -20 -42 -30 -42 -22 0 22 13 35 42 42 20 4 26 11 21 23 -4 10
-2 14 4 10 5 -3 16 5 23 19 8 15 19 23 28 19 11 -4 13 4 10 37 -3 24 -1 54 2
68 9 30 -7 81 -19 62 -4 -7 -12 2 -21 26 l-14 37 -6 -30 c-6 -29 -6 -28 -24
23 -10 28 -23 52 -29 52 -7 0 -20 14 -29 30 l-17 30 23 -15 c12 -8 26 -12 30
-8 8 8 -124 133 -139 131 -5 0 -20 -3 -32 -5z m97 -75 c0 -12 -14 -10 -28 4
-19 19 -14 29 8 16 11 -7 20 -16 20 -20z m-17 -30 c7 -25 0 -41 -14 -33 -12 8
-12 55 0 55 5 0 11 -10 14 -22z m27 2 c0 -5 -4 -10 -10 -10 -5 0 -10 5 -10 10
0 6 5 10 10 10 6 0 10 -4 10 -10z m-63 -62 c-3 -8 -6 -5 -6 6 -1 11 2 17 5 13
3 -3 4 -12 1 -19z m92 -8 c12 -35 -1 -41 -17 -7 -6 12 -11 16 -11 9 -1 -7 8
-30 18 -51 19 -37 22 -63 8 -77 -4 -4 -7 -17 -8 -28 0 -12 -3 -15 -6 -8 -3 7
0 26 6 42 5 17 6 30 2 30 -13 0 -34 76 -26 99 9 29 21 26 34 -9z m-171 -25
c-3 -13 -2 -26 2 -27 8 -3 -38 -130 -51 -143 -4 -3 -9 1 -13 10 -3 9 -2 13 4
10 10 -6 18 18 24 70 3 36 25 105 33 105 3 0 3 -11 1 -25z m68 -53 c-7 -15
-24 -54 -36 -87 -13 -33 -33 -71 -45 -85 -12 -14 -30 -38 -40 -53 -10 -15 -20
-25 -23 -23 -2 3 3 18 13 33 11 16 14 28 8 30 -12 4 -5 43 7 43 5 0 6 -10 3
-22 -3 -18 -1 -17 13 7 9 17 20 32 24 35 4 3 22 40 40 82 18 43 37 75 41 72 5
-3 3 -17 -5 -32z m144 -91 c0 -52 -4 -72 -17 -82 -15 -13 -16 -11 -10 20 4 18
7 58 7 88 0 34 4 52 10 48 6 -3 10 -37 10 -74z m38 -39 c-5 -94 -23 -71 -24
31 -1 87 0 90 13 58 8 -19 13 -57 11 -89z m42 57 c0 -6 -4 -7 -10 -4 -5 3 -10
11 -10 16 0 6 5 7 10 4 6 -3 10 -11 10 -16z m-216 -100 c-36 -40 -39 -13 -5
41 l16 24 3 -23 c2 -12 -4 -31 -14 -42z m-170 -16 c-3 -35 -51 -164 -66 -178
-12 -11 -9 5 17 75 9 25 18 58 20 73 3 23 21 57 30 57 1 0 1 -12 -1 -27z m256
-35 c-1 -49 -35 -116 -65 -128 -35 -13 -40 -13 -25 5 7 8 16 12 21 9 5 -3 13
6 18 19 6 14 15 28 21 32 6 4 8 15 5 25 -7 22 4 70 16 70 5 0 9 -15 9 -32z
m42 -10 c-7 -7 -12 -8 -12 -2 0 14 12 26 19 19 2 -3 -1 -11 -7 -17z m-232 -8
c0 -5 -5 -10 -11 -10 -5 0 -7 5 -4 10 3 6 8 10 11 10 2 0 4 -4 4 -10z m126
-22 c-3 -13 -6 -29 -6 -37 0 -8 -6 -11 -16 -7 -9 4 -23 1 -31 -5 -30 -26 -24
3 8 35 40 41 54 45 45 14z m-166 -23 c-27 -29 -32 -28 -23 3 3 14 13 22 26 22
20 0 20 -1 -3 -25z m105 -75 c-3 -5 -14 -10 -23 -10 -15 0 -15 2 -2 10 20 13
33 13 25 0z m-214 -53 c-8 -8 -11 -7 -11 4 0 20 13 34 18 19 3 -7 -1 -17 -7
-23z m234 4 c-3 -6 -11 -11 -17 -11 -6 0 -6 6 2 15 14 17 26 13 15 -4z m-35
-1 c0 -8 -25 -20 -41 -20 -6 0 -7 5 -3 11 4 8 0 7 -15 -1 -12 -6 -43 -10 -69
-8 -41 3 -44 5 -24 14 27 12 152 15 152 4z"/>
<path d="M1770 1321 c0 -5 5 -13 10 -16 6 -3 10 -2 10 4 0 5 -4 13 -10 16 -5
3 -10 2 -10 -4z"/>
<path d="M1715 1260 c-3 -5 -1 -10 4 -10 6 0 11 5 11 10 0 6 -2 10 -4 10 -3 0
-8 -4 -11 -10z"/>
<path d="M1656 946 c-19 -39 -20 -52 -6 -61 5 -3 7 0 4 9 -3 8 2 29 11 46 9
18 14 34 12 36 -2 3 -12 -11 -21 -30z"/>
<path d="M1697 915 c-9 -19 -15 -35 -12 -35 7 0 37 61 33 66 -3 2 -12 -12 -21
-31z"/>
<path d="M3582 865 c0 -16 2 -22 5 -12 2 9 2 23 0 30 -3 6 -5 -1 -5 -18z"/>
<path d="M1666 856 c3 -9 11 -16 16 -16 13 0 5 23 -10 28 -7 2 -10 -2 -6 -12z"/>
<path d="M2057 803 c-47 -46 -75 -84 -60 -82 12 2 128 129 117 129 -5 0 -31
-21 -57 -47z"/>
<path d="M1910 699 c-22 -6 -20 -7 13 -8 38 -1 47 3 25 11 -7 3 -24 1 -38 -3z"/>
<path d="M3634 666 c-6 -7 -15 -22 -18 -34 -4 -12 -11 -22 -15 -22 -12 0 -34
-92 -24 -99 12 -9 39 -71 47 -109 12 -52 25 -37 19 23 -4 36 -2 55 5 55 6 0
14 -5 17 -10 16 -26 26 9 24 91 -1 72 -4 89 -15 85 -8 -3 -14 1 -14 9 0 20
-13 25 -26 11z m-4 -106 c-8 -5 -10 -22 -6 -48 7 -51 -7 -63 -21 -18 -8 26 -6
43 11 87 l21 54 3 -34 c2 -19 -2 -37 -8 -41z"/>
<path d="M1576 605 c-9 -26 -7 -32 5 -12 6 10 9 21 6 23 -2 3 -7 -2 -11 -11z"/>
<path d="M3718 439 c-9 -16 -14 -29 -9 -29 8 0 34 50 29 56 -2 1 -11 -11 -20
-27z"/>
<path d="M3670 389 c0 -5 5 -7 10 -4 6 3 10 8 10 11 0 2 -4 4 -10 4 -5 0 -10
-5 -10 -11z"/>
<path d="M1461 84 c0 -11 3 -14 6 -6 3 7 2 16 -1 19 -3 4 -6 -2 -5 -13z"/>
</g>
</svg>
